<svg width="117" height="31" viewBox="0 0 117 31" fill="none" xmlns="http://www.w3.org/2000/svg">
    <path d="M49.956 3.34368V23.4139H60.0144V26.793H45.8596V7.33906L49.956 3.34368Z" fill="white"/>
    <path d="M69.9451 27.2563C64.6961 27.2563 61.1427 23.5791 61.1427 18.1815C61.1427 12.7838 64.8683 9.2038 69.9451 9.2038C75.9391 9.2038 78.3765 13.7072 78.4096 18.5767C78.4096 18.742 78.4096 19.0076 78.3765 19.3057H64.9014C65.2061 22.3188 67.1699 24.1752 69.9451 24.1752C71.942 24.1752 73.6342 23.4138 74.2435 21.7226H78.138C77.1214 25.199 74.1078 27.2531 69.9451 27.2531V27.2563ZM74.5482 16.5907C74.3098 14.1381 72.856 12.1845 69.9451 12.1845C67.0341 12.1845 65.3055 13.9405 64.9346 16.5907H74.5482Z"
          fill="white"/>
    <path d="M94.3187 12.7482H94.3518V3.14202H98.3456V26.793H94.2822V23.8448H94.2491C93.6398 25.3351 91.7422 27.2239 88.6955 27.2239C83.9201 27.2239 80.5688 23.6147 80.5688 18.1815C80.5688 12.7482 83.887 9.23945 88.6955 9.23945C91.7422 9.23945 93.706 11.1607 94.3153 12.7515L94.3187 12.7482ZM89.5102 24.1428C92.9642 24.1428 94.5869 21.295 94.5869 18.1815C94.5869 15.068 92.8947 12.3206 89.5102 12.3206C86.1257 12.3206 84.4666 14.8703 84.4666 18.1815C84.4666 21.4926 86.1919 24.1428 89.5102 24.1428Z"
          fill="white"/>
    <path d="M105.456 9.6671V12.6802C106.37 10.7265 107.996 9.2038 110.705 9.2038C115.242 9.2038 117 12.1521 117 16.0918V26.7898H113.106V16.8855C113.106 14.2353 112.192 12.5149 109.754 12.5149C107.317 12.5149 105.522 14.569 105.522 18.8424V26.793H101.594V9.6671H105.456Z"
          fill="white"/>
    <path d="M23.8411 24.0777L17.2185 30.6203H0V6.91021L6.99697 0V24.0777H23.8411Z" fill="white"/>
    <path d="M7.86114 6.92848L14.4838 0.379663H31.7023V24.0865L24.7053 31V6.92848H7.86114Z" fill="white"/>
</svg>
